<svg xmlns="http://www.w3.org/2000/svg" viewBox="0 0 64 64">
  <path fill-rule="evenodd" clip-rule="evenodd" d="M10.473 10.972l.93-.004a3.557 3.557 0 012.782 1.323c.679.84.777 1.92.705 2.999-.087 1.323 5.51-3.226 4.388-3.542-1.04-.292-2.104-.482-2.782-1.322a3.556 3.556 0 01-.705-3l.2-.907-5.518 4.453" fill="#E9541E"/>
  <path fill-rule="evenodd" clip-rule="evenodd" d="M12.653 8.028c1.746-1.41 3.58-2.033 4.096-1.393.516.64-.48 2.3-2.227 3.71-1.746 1.408-3.58 2.032-4.096 1.393-.516-.64.48-2.3 2.227-3.71z" fill="#E9541E"/>
  <path fill-rule="evenodd" clip-rule="evenodd" d="M13.124 8.613c1.142-.922 2.34-1.33 2.678-.911.338.418-.314 1.504-1.455 2.425-1.142.921-2.34 1.329-2.678.91-.338-.417.314-1.503 1.455-2.424zm40.403 44.415l-.93.004a3.557 3.557 0 01-2.782-1.323c-.678-.84-.777-1.921-.706-2.999.088-1.323-5.51 3.226-4.387 3.541 1.04.293 2.104.482 2.783 1.323.678.84.938 1.944.705 3l-.2.907 5.517-4.453" fill="#E9541E"/>
  <path fill-rule="evenodd" clip-rule="evenodd" d="M51.347 55.972c-1.746 1.409-3.58 2.033-4.096 1.393-.516-.64.48-2.3 2.227-3.71 1.746-1.409 3.58-2.032 4.095-1.393.517.64-.48 2.3-2.226 3.71z" fill="#E9541E"/>
  <path fill-rule="evenodd" clip-rule="evenodd" d="M50.875 55.387c-1.141.921-2.34 1.33-2.677.91-.338-.417.314-1.503 1.455-2.424 1.142-.921 2.34-1.329 2.678-.91.337.417-.314 1.503-1.456 2.424zm-39.903-1.86l-.004-.93a3.556 3.556 0 011.323-2.782c.84-.679 1.921-.777 2.999-.706 1.323.088-3.226-5.51-3.542-4.388-.292 1.04-.481 2.105-1.322 2.783a3.557 3.557 0 01-3 .706l-.907-.2 4.453 5.517" fill="#E9541E"/>
  <path fill-rule="evenodd" clip-rule="evenodd" d="M8.028 51.347c-1.409-1.746-2.033-3.58-1.393-4.096.64-.516 2.3.48 3.71 2.227 1.409 1.746 2.032 3.58 1.393 4.096-.64.516-2.3-.481-3.71-2.227" fill="#E9541E"/>
  <path fill-rule="evenodd" clip-rule="evenodd" d="M8.613 50.875c-.921-1.141-1.33-2.34-.91-2.677.417-.338 1.503.314 2.424 1.455.921 1.142 1.329 2.34.91 2.678-.417.337-1.503-.314-2.424-1.456zm44.415-40.402l.004.93a3.557 3.557 0 01-1.322 2.782c-.842.678-1.922.777-3 .705-1.323-.087 3.225 5.51 3.541 4.388.293-1.04.483-2.104 1.323-2.782a3.556 3.556 0 013-.706l.907.2-4.453-5.517" fill="#E9541E"/>
  <path fill-rule="evenodd" clip-rule="evenodd" d="M55.972 12.653c1.409 1.745 2.033 3.58 1.393 4.096-.64.516-2.3-.48-3.71-2.227-1.409-1.746-2.032-3.58-1.393-4.096.64-.516 2.301.48 3.71 2.227z" fill="#E9541E"/>
  <path fill-rule="evenodd" clip-rule="evenodd" d="M55.387 13.124c.921 1.142 1.329 2.34.911 2.678-.418.338-1.504-.314-2.425-1.455-.921-1.142-1.329-2.34-.91-2.678.417-.338 1.503.314 2.424 1.455zM1.909 32.353l.654-.66a3.557 3.557 0 012.903-1.033c1.075.115 1.909.81 2.62 1.622.874.998 1.615-6.177.598-5.606-.942.528-1.828 1.147-2.902 1.032a3.556 3.556 0 01-2.62-1.622l-.5-.783-.753 7.05" fill="#E9541E"/>
  <path fill-rule="evenodd" clip-rule="evenodd" d="M1.369 28.73c.238-2.231 1.094-3.969 1.91-3.882.818.088 1.288 1.967 1.05 4.198-.239 2.23-1.094 3.969-1.912 3.881-.817-.087-1.286-1.966-1.048-4.197z" fill="#E9541E"/>
  <path fill-rule="evenodd" clip-rule="evenodd" d="M2.116 28.81c.155-1.459.715-2.595 1.249-2.538.534.057.841 1.285.686 2.744-.156 1.459-.716 2.595-1.25 2.538-.534-.058-.841-1.286-.685-2.744zm59.975 2.837l-.655.66a3.555 3.555 0 01-2.902 1.032c-1.075-.114-1.908-.809-2.62-1.622-.874-.997-1.615 6.177-.599 5.607.943-.528 1.83-1.147 2.904-1.032a3.556 3.556 0 012.619 1.622l.5.783.753-7.05" fill="#E9541E"/>
  <path fill-rule="evenodd" clip-rule="evenodd" d="M62.631 35.27c-.238 2.23-1.093 3.969-1.91 3.881-.818-.087-1.288-1.966-1.05-4.197.239-2.23 1.095-3.969 1.912-3.882.817.088 1.286 1.967 1.048 4.198" fill="#E9541E"/>
  <path fill-rule="evenodd" clip-rule="evenodd" d="M61.884 35.19c-.155 1.459-.715 2.595-1.25 2.538-.533-.057-.84-1.286-.685-2.745.156-1.458.716-2.594 1.25-2.537.534.057.841 1.286.685 2.744zM32.353 62.091l-.66-.655a3.557 3.557 0 01-1.032-2.902c.114-1.075.808-1.908 1.621-2.62.998-.874-6.176-1.615-5.606-.599.528.943 1.146 1.83 1.032 2.903a3.556 3.556 0 01-1.622 2.62l-.783.5 7.05.753z" fill="#E9541E"/>
  <path fill-rule="evenodd" clip-rule="evenodd" d="M28.73 62.631c-2.231-.238-3.969-1.094-3.882-1.911.088-.818 1.967-1.287 4.198-1.049 2.231.239 3.969 1.095 3.882 1.912-.088.817-1.967 1.286-4.198 1.048" fill="#E9541E"/>
  <path fill-rule="evenodd" clip-rule="evenodd" d="M28.81 61.884c-1.458-.156-2.595-.715-2.538-1.25.057-.533 1.286-.84 2.744-.685 1.459.156 2.594.715 2.538 1.25-.057.534-1.286.841-2.744.685zm2.837-59.975l.66.654a3.558 3.558 0 011.032 2.903c-.114 1.074-.809 1.908-1.621 2.62-.998.874 6.177 1.615 5.607.598-.53-.942-1.148-1.828-1.033-2.902a3.556 3.556 0 011.622-2.62l.784-.5-7.05-.753" fill="#E9541E"/>
  <path fill-rule="evenodd" clip-rule="evenodd" d="M35.27 1.369c2.231.238 3.97 1.093 3.882 1.91-.088.818-1.967 1.288-4.198 1.05-2.23-.239-3.969-1.095-3.882-1.912.088-.817 1.967-1.287 4.199-1.048" fill="#E9541E"/>
  <path fill-rule="evenodd" clip-rule="evenodd" d="M35.19 2.116c1.459.155 2.595.714 2.538 1.249-.057.534-1.286.841-2.744.686-1.459-.156-2.595-.716-2.538-1.25.057-.534 1.286-.841 2.744-.685" fill="#E9541E"/>
  <path fill-rule="evenodd" clip-rule="evenodd" d="M24.634 6.982C38.45 2.913 52.95 10.817 57.018 24.633c4.068 13.818-3.835 28.317-17.652 32.385C25.55 61.086 11.05 53.183 6.982 39.366 2.914 25.549 10.817 11.05 24.634 6.982z" fill="#70331E"/>
  <path fill-rule="evenodd" clip-rule="evenodd" d="M50.457 50.431a25.964 25.964 0 01-12.586 6.979c6.254-9.291-25.479-39.357-30.992-32.424a26.224 26.224 0 015.677-10.37l37.901 35.815z" fill="#431F16"/>
  <path fill-rule="evenodd" clip-rule="evenodd" d="M58.085 32.002c.004 11.272-7.357 21.67-18.719 25.016C25.55 61.086 11.05 53.183 6.982 39.366a26.083 26.083 0 01-1.067-7.362c.002 1.536.345 3.098 1.067 4.648 4.068 8.725 18.567 13.715 32.384 11.146 11.361-2.113 18.722-8.678 18.719-15.796" fill="#431F16"/>
  <path fill-rule="evenodd" clip-rule="evenodd" d="M19.35 2.446l.92.376a3.8 3.8 0 012.205 2.443c.326 1.107-.019 2.214-.53 3.248-.627 1.27 6.756-.93 5.779-1.7-.907-.715-1.88-1.337-2.206-2.444a3.799 3.799 0 01.53-3.248l.568-.815-7.266 2.14" fill="#F36530"/>
  <path fill-rule="evenodd" clip-rule="evenodd" d="M22.705.432c2.3-.677 4.364-.543 4.612.299.248.842-1.415 2.074-3.714 2.751-2.3.677-4.364.543-4.612-.3-.248-.842 1.415-2.074 3.714-2.75" fill="#F68756"/>
  <path fill-rule="evenodd" clip-rule="evenodd" d="M22.932 1.201c1.503-.442 2.853-.354 3.015.196.162.55-.925 1.356-2.428 1.798-1.503.443-2.853.355-3.015-.196-.162-.55.925-1.355 2.428-1.798zM44.65 61.554l-.92-.376a3.8 3.8 0 01-2.205-2.443c-.325-1.107.019-2.214.53-3.248.627-1.27-6.756.93-5.778 1.7.906.714 1.88 1.337 2.206 2.444a3.803 3.803 0 01-.53 3.248l-.57.815 7.267-2.14" fill="#F36530"/>
  <path fill-rule="evenodd" clip-rule="evenodd" d="M41.295 63.569c-2.3.676-4.364.542-4.612-.3-.248-.842 1.414-2.074 3.714-2.751 2.299-.677 4.364-.543 4.612.3.248.842-1.415 2.073-3.714 2.75" fill="#F68756"/>
  <path fill-rule="evenodd" clip-rule="evenodd" d="M41.068 62.798c-1.503.443-2.853.355-3.015-.195-.162-.551.925-1.356 2.428-1.799 1.503-.442 2.853-.355 3.015.196.162.55-.925 1.356-2.428 1.798zM2.446 44.65l.376-.92a3.798 3.798 0 012.443-2.205c1.107-.326 2.214.019 3.249.53 1.27.627-.931-6.757-1.702-5.779-.714.907-1.336 1.88-2.443 2.206a3.797 3.797 0 01-3.248-.53l-.814-.569 2.139 7.267" fill="#F36530"/>
  <path fill-rule="evenodd" clip-rule="evenodd" d="M.432 41.295c-.677-2.3-.543-4.364.299-4.613.842-.247 2.074 1.416 2.751 3.715s.543 4.364-.3 4.612c-.842.248-2.073-1.415-2.75-3.714" fill="#F68756"/>
  <path fill-rule="evenodd" clip-rule="evenodd" d="M1.202 41.068c-.443-1.503-.355-2.853.195-3.015.551-.162 1.356.925 1.799 2.428.442 1.503.355 2.853-.196 3.015-.55.162-1.356-.925-1.798-2.428M61.554 19.35l-.376.92a3.801 3.801 0 01-2.443 2.205c-1.107.326-2.214-.019-3.248-.53-1.27-.627.93 6.756 1.7 5.778.715-.906 1.337-1.88 2.444-2.206a3.8 3.8 0 013.248.53l.814.57-2.139-7.267" fill="#F36530"/>
  <path fill-rule="evenodd" clip-rule="evenodd" d="M63.569 22.705c.676 2.299.542 4.364-.3 4.612-.842.248-2.074-1.415-2.75-3.714-.678-2.3-.544-4.364.299-4.612.842-.248 2.073 1.415 2.75 3.714" fill="#F68756"/>
  <path fill-rule="evenodd" clip-rule="evenodd" d="M62.798 22.932c.443 1.503.355 2.853-.195 3.015-.551.162-1.356-.925-1.799-2.428-.442-1.503-.355-2.853.196-3.015.55-.162 1.356.924 1.798 2.428zM2.157 20.047l.916-.384a3.8 3.8 0 013.287.167c1.014.553 1.553 1.58 1.923 2.672.454 1.342 4.12-5.435 2.882-5.288-1.145.136-2.273.384-3.287-.168a3.798 3.798 0 01-1.922-2.672l-.174-.978-3.625 6.65z" fill="#F36530"/>
  <path fill-rule="evenodd" clip-rule="evenodd" d="M3.105 16.25c1.147-2.104 2.702-3.47 3.473-3.05.771.42.466 2.468-.68 4.572-1.148 2.105-2.703 3.47-3.474 3.05-.77-.42-.466-2.467.681-4.572z" fill="#F68756"/>
  <path fill-rule="evenodd" clip-rule="evenodd" d="M3.81 16.634c.75-1.375 1.766-2.268 2.27-1.993.504.275.305 1.612-.445 2.988s-1.766 2.268-2.27 1.994c-.504-.275-.305-1.613.445-2.989zm58.033 27.319l-.916.384a3.8 3.8 0 01-3.287-.168c-1.014-.552-1.553-1.578-1.923-2.671-.454-1.342-4.119 5.435-2.882 5.288 1.145-.136 2.273-.384 3.287.168a3.8 3.8 0 011.922 2.672l.174.977 3.625-6.65z" fill="#F36530"/>
  <path fill-rule="evenodd" clip-rule="evenodd" d="M60.895 47.75c-1.148 2.104-2.703 3.47-3.474 3.049-.77-.42-.466-2.467.682-4.571 1.147-2.105 2.702-3.47 3.473-3.05.771.42.466 2.467-.681 4.572z" fill="#F68756"/>
  <path fill-rule="evenodd" clip-rule="evenodd" d="M60.19 47.366c-.75 1.375-1.766 2.268-2.27 1.993-.504-.275-.305-1.613.445-2.988.75-1.376 1.766-2.269 2.27-1.994.504.275.305 1.613-.445 2.989M20.047 61.843l-.384-.916a3.798 3.798 0 01.168-3.287c.552-1.014 1.578-1.553 2.671-1.923 1.342-.454-5.435-4.119-5.288-2.883.136 1.146.384 2.274-.168 3.287a3.8 3.8 0 01-2.672 1.923l-.978.173 6.65 3.626" fill="#F36530"/>
  <path fill-rule="evenodd" clip-rule="evenodd" d="M16.25 60.895c-2.104-1.148-3.47-2.703-3.05-3.473.42-.771 2.468-.467 4.572.68 2.105 1.148 3.47 2.703 3.05 3.474-.42.77-2.467.466-4.572-.681" fill="#F68756"/>
  <path fill-rule="evenodd" clip-rule="evenodd" d="M16.634 60.19c-1.375-.75-2.268-1.766-1.993-2.27.275-.504 1.612-.305 2.988.444 1.376.75 2.268 1.767 1.994 2.27-.275.505-1.613.306-2.989-.444zM43.953 2.157l.384.916a3.8 3.8 0 01-.168 3.287c-.552 1.014-1.578 1.553-2.671 1.922-1.342.455 5.435 4.12 5.288 2.883-.136-1.145-.384-2.273.168-3.287a3.798 3.798 0 012.672-1.922l.978-.174-6.651-3.625z" fill="#F36530"/>
  <path fill-rule="evenodd" clip-rule="evenodd" d="M47.75 3.105c2.104 1.147 3.47 2.702 3.05 3.473-.421.771-2.467.466-4.572-.68-2.105-1.148-3.47-2.703-3.05-3.474.42-.77 2.467-.466 4.572.681z" fill="#F68756"/>
  <path fill-rule="evenodd" clip-rule="evenodd" d="M47.366 3.81c1.376.75 2.268 1.766 1.993 2.27-.274.504-1.613.305-2.988-.445-1.376-.75-2.268-1.766-1.994-2.27.275-.504 1.612-.305 2.989.445" fill="#F36530"/>
  <path fill-rule="evenodd" clip-rule="evenodd" d="M30.18 25.815a6.447 6.447 0 113.64 12.37 6.447 6.447 0 01-3.64-12.37z" fill="#F68756"/>
  <path fill-rule="evenodd" clip-rule="evenodd" d="M30.846 28.08a4.086 4.086 0 112.307 7.84 4.086 4.086 0 01-2.307-7.84z" fill="#F36530"/>
  <path fill-rule="evenodd" clip-rule="evenodd" d="M25.745 10.756c2.91-.857 5.861.454 6.59 2.927.728 2.474-1.041 5.174-3.952 6.032-2.911.857-5.861-.454-6.59-2.928-.728-2.473 1.041-5.174 3.952-6.03z" fill="#F68756"/>
  <path fill-rule="evenodd" clip-rule="evenodd" d="M26.228 12.397c1.845-.543 3.714.287 4.176 1.855.461 1.567-.66 3.279-2.504 3.822-1.845.543-3.715-.288-4.176-1.855-.462-1.568.66-3.28 2.504-3.822z" fill="#F36530"/>
  <path fill-rule="evenodd" clip-rule="evenodd" d="M35.617 44.285c2.91-.857 5.861.454 6.59 2.928.728 2.474-1.041 5.173-3.952 6.03-2.91.858-5.86-.453-6.59-2.927-.728-2.473 1.041-5.174 3.952-6.03z" fill="#F68756"/>
  <path fill-rule="evenodd" clip-rule="evenodd" d="M36.1 45.926c1.845-.543 3.714.287 4.176 1.855.461 1.568-.66 3.279-2.504 3.822-1.845.543-3.714-.287-4.176-1.855-.461-1.568.66-3.279 2.504-3.822" fill="#F36530"/>
  <path fill-rule="evenodd" clip-rule="evenodd" d="M10.756 38.255c-.857-2.911.454-5.861 2.927-6.59 2.474-.728 5.175 1.041 6.032 3.952.857 2.91-.454 5.861-2.928 6.59-2.473.728-5.173-1.041-6.03-3.952" fill="#F68756"/>
  <path fill-rule="evenodd" clip-rule="evenodd" d="M12.397 37.772c-.543-1.845.287-3.714 1.855-4.176 1.567-.462 3.279.66 3.822 2.505.543 1.844-.288 3.713-1.855 4.175-1.568.461-3.279-.66-3.822-2.505z" fill="#F36530"/>
  <path fill-rule="evenodd" clip-rule="evenodd" d="M44.285 28.383c-.857-2.911.454-5.861 2.928-6.59 2.474-.728 5.174 1.04 6.03 3.952.858 2.911-.453 5.861-2.926 6.59-2.474.728-5.175-1.042-6.032-3.952" fill="#F68756"/>
  <path fill-rule="evenodd" clip-rule="evenodd" d="M45.926 27.9c-.543-1.845.288-3.714 1.855-4.176 1.568-.462 3.279.66 3.822 2.504.543 1.844-.287 3.714-1.855 4.176-1.568.461-3.279-.66-3.822-2.505z" fill="#F36530"/>
  <path fill-rule="evenodd" clip-rule="evenodd" d="M13.2 21.753c1.405-2.576 4.318-3.697 6.507-2.503 2.189 1.193 2.825 4.248 1.421 6.824-1.404 2.576-4.317 3.696-6.506 2.503s-2.825-4.248-1.421-6.824" fill="#F68756"/>
  <path fill-rule="evenodd" clip-rule="evenodd" d="M14.653 22.544c.89-1.632 2.736-2.342 4.123-1.586s1.79 2.692.9 4.325c-.89 1.632-2.735 2.342-4.122 1.586-1.388-.756-1.791-2.692-.901-4.325" fill="#F36530"/>
  <path fill-rule="evenodd" clip-rule="evenodd" d="M42.872 37.926c1.404-2.576 4.317-3.697 6.506-2.504s2.825 4.249 1.421 6.825c-1.404 2.576-4.317 3.696-6.506 2.504-2.19-1.194-2.825-4.25-1.421-6.825z" fill="#F68756"/>
  <path fill-rule="evenodd" clip-rule="evenodd" d="M44.324 38.717c.89-1.632 2.735-2.342 4.123-1.587 1.387.757 1.79 2.693.9 4.325-.89 1.633-2.736 2.343-4.123 1.587s-1.79-2.692-.9-4.325z" fill="#F36530"/>
  <path fill-rule="evenodd" clip-rule="evenodd" d="M21.753 50.799c-2.576-1.404-3.697-4.317-2.503-6.506 1.193-2.189 4.248-2.825 6.824-1.422 2.576 1.405 3.697 4.317 2.504 6.507-1.194 2.189-4.249 2.825-6.825 1.421" fill="#F68756"/>
  <path fill-rule="evenodd" clip-rule="evenodd" d="M22.544 49.347c-1.632-.89-2.342-2.735-1.586-4.123.756-1.387 2.692-1.79 4.325-.9 1.632.89 2.342 2.735 1.586 4.123-.756 1.387-2.692 1.79-4.325.9z" fill="#F36530"/>
  <path fill-rule="evenodd" clip-rule="evenodd" d="M37.926 21.128c-2.576-1.404-3.697-4.317-2.504-6.506 1.193-2.19 4.25-2.825 6.825-1.421 2.576 1.404 3.697 4.317 2.504 6.506-1.194 2.189-4.25 2.825-6.825 1.421" fill="#F68756"/>
  <path fill-rule="evenodd" clip-rule="evenodd" d="M38.717 19.676c-1.632-.89-2.343-2.735-1.586-4.122.756-1.388 2.692-1.791 4.325-.902 1.632.89 2.342 2.736 1.586 4.124-.756 1.387-2.692 1.79-4.325.9z" fill="#F36530"/>
</svg>
