<svg xmlns="http://www.w3.org/2000/svg" viewBox="0 0 60 60">
  <path fill-rule="evenodd" clip-rule="evenodd" d="M9.818 10.286l.872-.003a3.334 3.334 0 012.609 1.24c.636.787.728 1.8.66 2.811-.081 1.24 5.166-3.024 4.114-3.32-.974-.274-1.972-.452-2.608-1.24a3.333 3.333 0 01-.661-2.811l.187-.852-5.173 4.175z" fill="#E9541E"/>
  <path fill-rule="evenodd" clip-rule="evenodd" d="M11.862 7.526c1.637-1.32 3.356-1.906 3.84-1.306.484.6-.45 2.157-2.088 3.478-1.636 1.32-3.356 1.906-3.84 1.306-.484-.6.451-2.157 2.088-3.478z" fill="#E9541E"/>
  <path fill-rule="evenodd" clip-rule="evenodd" d="M12.304 8.074c1.07-.863 2.194-1.246 2.51-.854.317.392-.294 1.41-1.364 2.274-1.07.864-2.194 1.246-2.51.854-.317-.392.294-1.41 1.364-2.274zm37.877 41.64l-.87.003a3.334 3.334 0 01-2.61-1.24c-.635-.787-.728-1.801-.661-2.811.082-1.24-5.166 3.024-4.113 3.32.974.274 1.972.452 2.609 1.24.635.788.879 1.822.66 2.811l-.187.851 5.172-4.174z" fill="#E9541E"/>
  <path fill-rule="evenodd" clip-rule="evenodd" d="M48.138 52.474c-1.637 1.32-3.356 1.905-3.84 1.306-.484-.6.45-2.157 2.088-3.478 1.636-1.321 3.356-1.906 3.84-1.306.484.6-.451 2.157-2.088 3.478z" fill="#E9541E"/>
  <path fill-rule="evenodd" clip-rule="evenodd" d="M47.696 51.925c-1.07.864-2.194 1.247-2.51.854-.317-.392.294-1.41 1.364-2.273 1.07-.864 2.194-1.246 2.51-.854.317.392-.294 1.41-1.364 2.273zm-37.41-1.743l-.003-.872a3.334 3.334 0 011.24-2.609c.787-.636 1.8-.728 2.811-.661 1.24.082-3.024-5.165-3.32-4.114-.274.975-.451 1.973-1.24 2.61a3.335 3.335 0 01-2.811.66l-.851-.187 4.174 5.173z" fill="#E9541E"/>
  <path fill-rule="evenodd" clip-rule="evenodd" d="M7.526 48.138c-1.32-1.637-1.906-3.356-1.306-3.84.6-.484 2.157.45 3.478 2.087 1.321 1.637 1.906 3.357 1.306 3.84-.6.484-2.157-.45-3.478-2.087z" fill="#E9541E"/>
  <path fill-rule="evenodd" clip-rule="evenodd" d="M8.074 47.696c-.863-1.07-1.246-2.194-.853-2.51.392-.317 1.41.294 2.273 1.364.864 1.07 1.246 2.194.854 2.51-.392.317-1.41-.294-2.274-1.364zm41.64-37.878l.004.872a3.335 3.335 0 01-1.24 2.608c-.789.637-1.802.729-2.812.662-1.24-.082 3.023 5.165 3.32 4.113.274-.974.452-1.972 1.24-2.608a3.334 3.334 0 012.812-.662l.85.188-4.174-5.173z" fill="#E9541E"/>
  <path fill-rule="evenodd" clip-rule="evenodd" d="M52.474 11.862c1.32 1.637 1.905 3.356 1.306 3.84-.6.484-2.157-.45-3.478-2.088-1.32-1.636-1.906-3.356-1.306-3.84.6-.484 2.157.451 3.478 2.088z" fill="#E9541E"/>
  <path fill-rule="evenodd" clip-rule="evenodd" d="M51.925 12.304c.864 1.07 1.246 2.194.855 2.51-.392.317-1.41-.294-2.274-1.364-.864-1.07-1.246-2.194-.854-2.51.392-.317 1.41.294 2.273 1.364zM1.79 30.33l.613-.618a3.335 3.335 0 012.722-.968c1.007.107 1.789.759 2.456 1.52.819.936 1.514-5.79.56-5.256-.883.496-1.714 1.076-2.72.969a3.334 3.334 0 01-2.457-1.522l-.469-.734-.706 6.61z" fill="#E9541E"/>
  <path fill-rule="evenodd" clip-rule="evenodd" d="M1.283 26.934c.224-2.091 1.026-3.72 1.792-3.639.766.082 1.206 1.844.983 3.935-.223 2.092-1.025 3.721-1.792 3.64-.766-.082-1.206-1.844-.983-3.936z" fill="#E9541E"/>
  <path fill-rule="evenodd" clip-rule="evenodd" d="M1.984 27.009c.145-1.367.67-2.432 1.17-2.38.502.054.79 1.206.643 2.574-.146 1.367-.67 2.432-1.17 2.378-.502-.053-.79-1.205-.643-2.572zm56.226 2.66l-.613.62a3.333 3.333 0 01-2.721.967c-1.008-.108-1.79-.759-2.456-1.521-.82-.935-1.515 5.79-.562 5.257.883-.495 1.715-1.076 2.722-.968a3.334 3.334 0 012.456 1.52l.469.735.706-6.61z" fill="#E9541E"/>
  <path fill-rule="evenodd" clip-rule="evenodd" d="M58.717 33.066c-.223 2.091-1.026 3.72-1.792 3.639-.766-.082-1.206-1.844-.983-3.935.223-2.092 1.026-3.721 1.792-3.64.766.082 1.206 1.844.983 3.936z" fill="#E9541E"/>
  <path fill-rule="evenodd" clip-rule="evenodd" d="M58.017 32.99c-.146 1.368-.67 2.433-1.172 2.38-.5-.053-.788-1.205-.642-2.573.145-1.367.67-2.432 1.171-2.379.5.053.789 1.206.642 2.573zM30.33 58.21l-.618-.613a3.334 3.334 0 01-.968-2.722c.108-1.007.758-1.788 1.52-2.456.936-.819-5.79-1.514-5.255-.56.495.882 1.074 1.714.967 2.72a3.334 3.334 0 01-1.52 2.456l-.735.47 6.61.706z" fill="#E9541E"/>
  <path fill-rule="evenodd" clip-rule="evenodd" d="M26.934 58.717c-2.091-.223-3.72-1.026-3.639-1.792.082-.767 1.844-1.206 3.935-.983 2.092.223 3.721 1.026 3.64 1.792-.082.766-1.844 1.206-3.936.983z" fill="#E9541E"/>
  <path fill-rule="evenodd" clip-rule="evenodd" d="M27.01 58.017c-1.368-.147-2.433-.67-2.38-1.172.054-.5 1.206-.788 2.573-.643 1.367.146 2.432.671 2.379 1.172-.054.5-1.206.788-2.573.642zM29.67 1.79l.618.613a3.335 3.335 0 01.968 2.722c-.108 1.007-.759 1.788-1.52 2.456-.936.819 5.79 1.514 5.256.56-.496-.883-1.076-1.714-.968-2.72a3.334 3.334 0 011.52-2.457l.735-.469-6.61-.706z" fill="#E9541E"/>
  <path fill-rule="evenodd" clip-rule="evenodd" d="M33.066 1.283c2.091.223 3.72 1.025 3.639 1.792-.082.766-1.844 1.206-3.936.983-2.091-.223-3.72-1.026-3.639-1.792.082-.766 1.844-1.206 3.936-.983z" fill="#E9541E"/>
  <path fill-rule="evenodd" clip-rule="evenodd" d="M32.991 1.983c1.367.146 2.432.67 2.379 1.171-.054.501-1.205.79-2.573.643-1.367-.146-2.432-.67-2.379-1.171.054-.5 1.206-.789 2.573-.643z" fill="#E9541E"/>
  <path fill-rule="evenodd" clip-rule="evenodd" d="M23.094 6.545c12.954-3.814 26.546 3.596 30.36 16.549 3.815 12.954-3.595 26.546-16.548 30.36-12.954 3.814-26.546-3.595-30.36-16.548C2.73 23.952 10.14 10.36 23.094 6.546z" fill="#70331E"/>
  <path fill-rule="evenodd" clip-rule="evenodd" d="M47.303 47.28a24.341 24.341 0 01-11.798 6.541c5.862-8.71-23.887-36.896-29.056-30.396a24.585 24.585 0 015.322-9.723L47.303 47.28z" fill="#431F16"/>
  <path fill-rule="evenodd" clip-rule="evenodd" d="M54.455 30.002c.003 10.568-6.897 20.316-17.55 23.452-12.953 3.814-26.546-3.595-30.36-16.548-.677-2.3-.998-4.62-1-6.903.002 1.441.324 2.905 1 4.358 3.815 8.18 17.407 12.858 30.36 10.45C47.558 42.83 54.459 36.674 54.456 30z" fill="#431F16"/>
  <path fill-rule="evenodd" clip-rule="evenodd" d="M18.14 2.293l.863.353a3.562 3.562 0 012.067 2.29c.306 1.038-.017 2.076-.496 3.045-.588 1.19 6.334-.872 5.417-1.594-.85-.67-1.762-1.253-2.068-2.291a3.56 3.56 0 01.497-3.045l.533-.764-6.812 2.006z" fill="#F36530"/>
  <path fill-rule="evenodd" clip-rule="evenodd" d="M21.286.405c2.156-.635 4.092-.51 4.324.28.232.79-1.326 1.944-3.482 2.58-2.156.634-4.091.508-4.324-.281-.232-.79 1.327-1.945 3.482-2.58z" fill="#F68756"/>
  <path fill-rule="evenodd" clip-rule="evenodd" d="M21.499 1.126c1.409-.414 2.674-.332 2.826.184.152.516-.867 1.27-2.276 1.686-1.41.415-2.674.332-2.826-.184-.153-.516.866-1.27 2.276-1.686zm20.36 56.58l-.862-.352a3.561 3.561 0 01-2.067-2.29c-.306-1.038.017-2.076.496-3.045.589-1.191-6.334.872-5.417 1.594.85.67 1.762 1.253 2.068 2.29a3.565 3.565 0 01-.496 3.046l-.534.764 6.812-2.007z" fill="#F36530"/>
  <path fill-rule="evenodd" clip-rule="evenodd" d="M38.714 59.596c-2.155.634-4.091.508-4.324-.282-.232-.789 1.326-1.944 3.482-2.579 2.155-.634 4.091-.508 4.324.282.232.789-1.327 1.943-3.482 2.578z" fill="#F68756"/>
  <path fill-rule="evenodd" clip-rule="evenodd" d="M38.502 58.873c-1.41.416-2.675.333-2.827-.183-.152-.516.867-1.271 2.276-1.686 1.409-.415 2.675-.333 2.827.184.152.516-.867 1.27-2.276 1.685zM2.293 41.86l.353-.863a3.56 3.56 0 012.29-2.067c1.038-.306 2.076.017 3.045.496 1.191.588-.872-6.334-1.594-5.417-.67.85-1.253 1.762-2.29 2.068a3.56 3.56 0 01-3.046-.497l-.764-.533 2.006 6.812z" fill="#F36530"/>
  <path fill-rule="evenodd" clip-rule="evenodd" d="M.405 38.714c-.635-2.155-.51-4.092.28-4.324.79-.232 1.945 1.327 2.58 3.482.634 2.155.508 4.091-.281 4.324-.79.232-1.945-1.327-2.58-3.482z" fill="#F68756"/>
  <path fill-rule="evenodd" clip-rule="evenodd" d="M1.127 38.502c-.415-1.41-.333-2.675.183-2.828.516-.151 1.27.868 1.686 2.277.415 1.409.333 2.675-.184 2.826-.516.152-1.27-.867-1.685-2.276zm56.58-20.362l-.352.863a3.564 3.564 0 01-2.29 2.067c-1.04.306-2.076-.017-3.046-.497-1.191-.588.872 6.335 1.595 5.417.669-.85 1.252-1.762 2.29-2.067a3.562 3.562 0 013.045.497l.764.533-2.006-6.812z" fill="#F36530"/>
  <path fill-rule="evenodd" clip-rule="evenodd" d="M59.596 21.286c.634 2.155.508 4.091-.281 4.324-.79.232-1.945-1.326-2.58-3.482-.634-2.156-.508-4.091.282-4.324.789-.232 1.944 1.327 2.579 3.482z" fill="#F68756"/>
  <path fill-rule="evenodd" clip-rule="evenodd" d="M58.873 21.499c.416 1.409.333 2.674-.183 2.826-.516.152-1.271-.867-1.686-2.276-.415-1.41-.333-2.675.184-2.826.516-.153 1.27.866 1.685 2.276zm-56.85-2.705l.858-.36a3.562 3.562 0 013.082.157c.95.518 1.455 1.48 1.802 2.505.426 1.258 3.862-5.096 2.703-4.958-1.075.127-2.132.36-3.082-.158a3.561 3.561 0 01-1.802-2.504l-.163-.917-3.398 6.235z" fill="#F36530"/>
  <path fill-rule="evenodd" clip-rule="evenodd" d="M2.911 15.235c1.076-1.973 2.533-3.253 3.256-2.86.723.395.437 2.313-.638 4.287-1.076 1.972-2.534 3.252-3.256 2.858-.723-.394-.437-2.313.638-4.285z" fill="#F68756"/>
  <path fill-rule="evenodd" clip-rule="evenodd" d="M3.572 15.595c.703-1.29 1.656-2.127 2.128-1.87.473.258.286 1.513-.417 2.802-.703 1.29-1.656 2.127-2.128 1.87-.473-.258-.286-1.513.417-2.802zm54.405 25.611l-.858.36a3.564 3.564 0 01-3.082-.157c-.95-.518-1.455-1.48-1.802-2.505-.426-1.258-3.862 5.096-2.703 4.958 1.075-.128 2.132-.36 3.082.158a3.562 3.562 0 011.802 2.504l.163.917 3.398-6.235z" fill="#F36530"/>
  <path fill-rule="evenodd" clip-rule="evenodd" d="M57.089 44.765c-1.076 1.973-2.533 3.254-3.256 2.86-.723-.395-.437-2.314.638-4.286 1.076-1.973 2.533-3.254 3.256-2.86.723.395.437 2.313-.638 4.286z" fill="#F68756"/>
  <path fill-rule="evenodd" clip-rule="evenodd" d="M56.428 44.405c-.703 1.29-1.656 2.127-2.128 1.87-.473-.258-.286-1.513.417-2.803s1.656-2.126 2.128-1.868c.473.257.286 1.512-.417 2.801zM18.794 57.977l-.36-.858a3.56 3.56 0 01.157-3.082c.518-.95 1.48-1.455 2.505-1.802 1.258-.426-5.096-3.862-4.958-2.703.128 1.075.36 2.132-.158 3.082a3.562 3.562 0 01-2.504 1.802l-.917.163 6.235 3.398z" fill="#F36530"/>
  <path fill-rule="evenodd" clip-rule="evenodd" d="M15.235 57.089c-1.973-1.076-3.253-2.534-2.86-3.256.395-.723 2.313-.437 4.287.638 1.972 1.076 3.252 2.533 2.858 3.256-.394.723-2.313.437-4.285-.638z" fill="#F68756"/>
  <path fill-rule="evenodd" clip-rule="evenodd" d="M15.595 56.428c-1.29-.703-2.127-1.656-1.87-2.129.258-.472 1.513-.285 2.802.418 1.29.703 2.127 1.656 1.87 2.128-.258.473-1.513.286-2.802-.417zM41.206 2.022l.36.859c.418.998.36 2.132-.157 3.082-.518.95-1.48 1.455-2.505 1.802-1.258.426 5.096 3.862 4.958 2.702-.127-1.074-.36-2.131.158-3.081a3.56 3.56 0 012.504-1.802l.917-.163-6.235-3.399z" fill="#F36530"/>
  <path fill-rule="evenodd" clip-rule="evenodd" d="M44.765 2.911c1.974 1.075 3.253 2.533 2.86 3.256-.395.723-2.313.437-4.286-.638-1.974-1.076-3.253-2.534-2.86-3.256.395-.723 2.313-.437 4.286.638z" fill="#F68756"/>
  <path fill-rule="evenodd" clip-rule="evenodd" d="M44.405 3.572c1.29.703 2.127 1.656 1.869 2.128-.257.473-1.512.286-2.802-.417s-2.126-1.656-1.869-2.129c.258-.472 1.512-.285 2.802.418z" fill="#F36530"/>
  <path fill-rule="evenodd" clip-rule="evenodd" d="M28.293 24.201a6.044 6.044 0 113.414 11.597 6.044 6.044 0 01-3.414-11.597z" fill="#F68756"/>
  <path fill-rule="evenodd" clip-rule="evenodd" d="M28.918 26.326a3.83 3.83 0 112.163 7.35 3.83 3.83 0 01-2.163-7.35z" fill="#F36530"/>
  <path fill-rule="evenodd" clip-rule="evenodd" d="M24.136 10.084c2.729-.804 5.495.425 6.177 2.744.684 2.32-.975 4.85-3.704 5.654-2.73.804-5.495-.425-6.178-2.744-.683-2.32.976-4.85 3.705-5.654z" fill="#F68756"/>
  <path fill-rule="evenodd" clip-rule="evenodd" d="M24.589 11.622c1.73-.51 3.482.27 3.915 1.74.432 1.469-.619 3.073-2.348 3.582-1.73.51-3.482-.27-3.915-1.74-.433-1.468.619-3.073 2.348-3.582z" fill="#F36530"/>
  <path fill-rule="evenodd" clip-rule="evenodd" d="M33.391 41.517c2.729-.803 5.495.426 6.178 2.745.683 2.32-.976 4.85-3.705 5.654-2.729.803-5.494-.425-6.178-2.744-.683-2.32.976-4.851 3.705-5.654z" fill="#F68756"/>
  <path fill-rule="evenodd" clip-rule="evenodd" d="M33.844 43.056c1.73-.51 3.482.269 3.915 1.739.432 1.47-.618 3.073-2.348 3.583-1.73.509-3.482-.27-3.915-1.74-.432-1.469.618-3.073 2.348-3.582z" fill="#F36530"/>
  <path fill-rule="evenodd" clip-rule="evenodd" d="M10.084 35.864c-.803-2.729.425-5.495 2.744-6.178 2.32-.682 4.85.976 5.654 3.705.804 2.729-.425 5.495-2.744 6.178-2.319.683-4.85-.976-5.654-3.705z" fill="#F68756"/>
  <path fill-rule="evenodd" clip-rule="evenodd" d="M11.622 35.41c-.509-1.728.27-3.481 1.74-3.914 1.469-.433 3.073.619 3.582 2.348.51 1.73-.27 3.482-1.739 3.915-1.47.432-3.074-.618-3.583-2.348z" fill="#F36530"/>
  <path fill-rule="evenodd" clip-rule="evenodd" d="M41.517 26.609c-.803-2.729.426-5.495 2.745-6.178 2.32-.683 4.85.976 5.654 3.705.803 2.73-.425 5.495-2.744 6.178-2.32.683-4.851-.977-5.654-3.705z" fill="#F68756"/>
  <path fill-rule="evenodd" clip-rule="evenodd" d="M43.056 26.156c-.51-1.73.27-3.482 1.74-3.915 1.468-.433 3.072.618 3.582 2.348.509 1.729-.27 3.482-1.74 3.914-1.469.433-3.073-.618-3.582-2.347z" fill="#F36530"/>
  <path fill-rule="evenodd" clip-rule="evenodd" d="M12.376 20.393c1.316-2.415 4.047-3.465 6.1-2.347 2.051 1.119 2.648 3.983 1.332 6.399-1.316 2.414-4.047 3.465-6.1 2.346-2.052-1.118-2.649-3.983-1.332-6.398z" fill="#F68756"/>
  <path fill-rule="evenodd" clip-rule="evenodd" d="M13.737 21.135c.834-1.53 2.565-2.196 3.865-1.487 1.3.709 1.679 2.524.845 4.055-.835 1.53-2.565 2.196-3.866 1.487-1.3-.71-1.678-2.524-.844-4.055z" fill="#F36530"/>
  <path fill-rule="evenodd" clip-rule="evenodd" d="M40.192 35.555c1.316-2.414 4.047-3.465 6.1-2.346 2.052 1.118 2.649 3.982 1.332 6.398-1.316 2.414-4.047 3.465-6.1 2.347-2.052-1.119-2.648-3.984-1.332-6.399z" fill="#F68756"/>
  <path fill-rule="evenodd" clip-rule="evenodd" d="M41.554 36.297c.834-1.53 2.564-2.196 3.865-1.487 1.3.709 1.678 2.524.844 4.054-.834 1.53-2.565 2.197-3.865 1.488-1.3-.709-1.679-2.524-.844-4.055z" fill="#F36530"/>
  <path fill-rule="evenodd" clip-rule="evenodd" d="M20.394 47.624c-2.415-1.316-3.466-4.047-2.347-6.1 1.118-2.051 3.982-2.648 6.398-1.332 2.414 1.316 3.465 4.047 2.347 6.1-1.12 2.052-3.984 2.648-6.398 1.332z" fill="#F68756"/>
  <path fill-rule="evenodd" clip-rule="evenodd" d="M21.135 46.263c-1.53-.834-2.196-2.564-1.487-3.865.709-1.3 2.524-1.679 4.055-.844 1.53.834 2.196 2.564 1.487 3.865-.709 1.3-2.524 1.678-4.055.844z" fill="#F36530"/>
  <path fill-rule="evenodd" clip-rule="evenodd" d="M35.556 19.808c-2.415-1.317-3.466-4.048-2.348-6.1 1.119-2.052 3.984-2.649 6.398-1.332 2.416 1.316 3.466 4.047 2.348 6.099-1.119 2.052-3.984 2.65-6.398 1.333z" fill="#F68756"/>
  <path fill-rule="evenodd" clip-rule="evenodd" d="M36.297 18.446c-1.53-.834-2.196-2.564-1.487-3.865.709-1.3 2.524-1.678 4.055-.844 1.53.834 2.196 2.564 1.487 3.865-.709 1.3-2.524 1.679-4.055.844z" fill="#F36530"/>
</svg>
